<svg xmlns="http://www.w3.org/2000/svg" xmlns:xlink="http://www.w3.org/1999/xlink" width="1440" zoomAndPan="magnify" viewBox="0 0 1080 234.749995" height="313" preserveAspectRatio="xMidYMid meet" version="1.0"><defs><clipPath id="0fbe72d48e"><path d="M 141 4.425781 L 179 4.425781 L 179 197 L 141 197 Z M 141 4.425781 " clip-rule="nonzero"/></clipPath><clipPath id="1e7df0693a"><path d="M 370 4.425781 L 541 4.425781 L 541 197 L 370 197 Z M 370 4.425781 " clip-rule="nonzero"/></clipPath><clipPath id="901a806e9a"><path d="M 560 4.425781 L 724 4.425781 L 724 197 L 560 197 Z M 560 4.425781 " clip-rule="nonzero"/></clipPath><clipPath id="b453045c4f"><path d="M 774 4.425781 L 937 4.425781 L 937 197 L 774 197 Z M 774 4.425781 " clip-rule="nonzero"/></clipPath><clipPath id="1cbfc39e2d"><path d="M 227 4.425781 L 364 4.425781 L 364 197 L 227 197 Z M 227 4.425781 " clip-rule="nonzero"/></clipPath><clipPath id="6bc97a1797"><path d="M 100.398438 216 L 976.214844 216 L 976.214844 233.679688 L 100.398438 233.679688 Z M 100.398438 216 " clip-rule="nonzero"/></clipPath></defs><g clip-path="url(#0fbe72d48e)"><path fill="#ffffff" d="M 141.363281 4.890625 L 178.714844 4.890625 L 178.714844 196.511719 L 141.363281 196.511719 Z M 141.363281 4.890625 " fill-opacity="1" fill-rule="nonzero"/></g><g clip-path="url(#1e7df0693a)"><path fill="#ffffff" d="M 435.261719 196.511719 L 435.261719 116.625 L 370.59375 4.890625 L 413.40625 4.890625 L 437.753906 54.066406 C 444.734375 68.292969 449.902344 79.085938 455.679688 92.171875 L 456.273438 92.171875 C 461.222656 79.941406 466.902344 68.011719 473.882812 54.066406 L 498.476562 4.890625 L 540.683594 4.890625 L 472.679688 115.769531 L 472.679688 196.511719 Z M 435.261719 196.511719 " fill-opacity="1" fill-rule="nonzero"/></g><g clip-path="url(#901a806e9a)"><path fill="#ffffff" d="M 560.800781 196.511719 L 560.800781 4.890625 L 603.601562 4.890625 L 656.417969 87.054688 C 669.460938 107.707031 681.097656 129.121094 691.328125 151.296875 L 691.9375 151.296875 C 689.214844 125.71875 688.636719 100.980469 688.636719 71.691406 L 688.636719 4.890625 L 723.300781 4.890625 L 723.300781 196.511719 L 684.363281 196.511719 L 630.867188 112.054688 C 617.480469 90.757812 605.375 68.757812 594.554688 46.046875 L 593.335938 46.328125 C 594.851562 71.082031 595.464844 96.363281 595.464844 127.929688 L 595.464844 196.445312 Z M 560.800781 196.511719 " fill-opacity="1" fill-rule="nonzero"/></g><g clip-path="url(#b453045c4f)"><path fill="#ffffff" d="M 774.300781 196.511719 L 774.300781 4.890625 L 817.101562 4.890625 L 869.917969 87.054688 C 882.96875 107.707031 894.617188 129.121094 904.859375 151.296875 L 905.472656 151.296875 C 902.746094 125.71875 902.171875 100.980469 902.171875 71.691406 L 902.171875 4.890625 L 936.832031 4.890625 L 936.832031 196.511719 L 897.863281 196.511719 L 844.433594 112.054688 C 831.003906 90.761719 818.863281 68.757812 808.007812 46.046875 L 806.785156 46.328125 C 808.304688 71.082031 808.914062 96.363281 808.914062 127.929688 L 808.914062 196.445312 Z M 774.300781 196.511719 " fill-opacity="1" fill-rule="nonzero"/></g><g clip-path="url(#1cbfc39e2d)"><path fill="#ffffff" d="M 322.214844 92.832031 C 330.320312 96.660156 338.886719 99.429688 346 104.300781 C 370.757812 121.230469 367.042969 157.683594 351.890625 174.746094 C 339.148438 189.085938 322.578125 195.523438 304.125 196.199219 C 279.203125 197.058594 254.210938 196.527344 229.273438 196.5625 C 228.566406 196.441406 227.882812 196.246094 227.226562 195.96875 L 227.226562 5.5 C 227.71875 5.238281 228.230469 4.726562 228.761719 4.742188 C 254.722656 4.957031 280.71875 4.742188 306.667969 5.648438 C 309.773438 5.734375 312.851562 6.066406 315.902344 6.644531 C 318.957031 7.226562 321.941406 8.042969 324.863281 9.101562 C 327.785156 10.160156 330.601562 11.445312 333.316406 12.957031 C 336.03125 14.46875 338.609375 16.183594 341.046875 18.109375 C 363.496094 35.75 359.515625 71.625 333.355469 87.070312 C 329.675781 89.25 325.730469 91.03125 322.214844 92.832031 Z M 264.609375 167.832031 C 274.910156 167.832031 284.582031 168.195312 294.222656 167.683594 C 299.183594 167.339844 303.96875 166.242188 308.582031 164.382812 C 318.898438 160.355469 324.609375 151.03125 324.574219 139.515625 C 324.542969 127.996094 319.277344 119.449219 309.226562 115.703125 C 294.683594 110.289062 279.648438 112.8125 264.660156 112.484375 Z M 264.726562 83.257812 C 277.335938 83.257812 289.699219 85.289062 301.550781 80.222656 C 311.898438 75.785156 317.195312 66.34375 316.40625 54.214844 C 315.695312 44.3125 309.96875 37.136719 298.445312 35.1875 C 287.453125 33.339844 276.132812 33.40625 264.777344 32.613281 Z M 264.726562 83.257812 " fill-opacity="1" fill-rule="nonzero"/></g><g clip-path="url(#6bc97a1797)"><path fill="#ffffff" d="M 226.78125 233.363281 C 195.714844 233.363281 164.652344 232.652344 133.589844 232.140625 C 125.203125 231.992188 116.835938 231.25 108.453125 230.984375 C 104.339844 230.835938 100.347656 229.335938 100.398438 225.324219 C 100.445312 221.316406 104.441406 219.8125 108.648438 219.78125 C 142.601562 219.417969 176.554688 218.789062 210.503906 218.609375 C 303.464844 218.082031 396.40625 217.800781 489.449219 217.289062 C 517.410156 217.140625 545.386719 216.101562 573.363281 216.167969 C 667.125 216.386719 760.898438 216.789062 854.683594 217.371094 C 883.484375 217.519531 912.289062 218.082031 941.074219 218.609375 C 950.5 218.773438 959.90625 219.300781 969.296875 219.847656 C 972.796875 220.0625 976.496094 220.554688 976.363281 225.507812 C 976.230469 230.457031 972.484375 230.851562 969.035156 230.886719 C 947.246094 231 901.128906 231.613281 900.273438 231.695312 C 887.679688 231.695312 878.519531 232.15625 865.925781 232.171875 " fill-opacity="1" fill-rule="nonzero"/></g></svg>