<svg id="Layer_2" data-name="Layer 2" xmlns="http://www.w3.org/2000/svg" viewBox="0 0 530.62 138.54"><defs><style>.cls-1{fill:#020202;}</style></defs><title>ibynn-logo-1</title><path class="cls-1" d="M502.06,427.06V543.18H479.43V427.06Z" transform="translate(-454.61 -426.97)"/><path class="cls-1" d="M657.49,543.18V494.77l-39.18-67.71h25.94L659,456.86c4.23,8.62,7.36,15.16,10.86,23.09h.36c3-7.41,6.44-14.64,10.67-23.09l14.9-29.8h25.57l-41.2,67.19v48.93Z" transform="translate(-454.61 -426.97)"/><path class="cls-1" d="M733.55,543.18V427.06h25.93l32,49.79a338.64,338.64,0,0,1,21.15,38.93H813c-1.65-15.5-2-30.49-2-48.24V427.06h21V543.18H808.41L776,492A391.76,391.76,0,0,1,754,452l-.74.17c.92,15,1.29,30.32,1.29,49.45v41.52Z" transform="translate(-454.61 -426.97)"/><path class="cls-1" d="M862.9,543.18V427.06h25.93l32,49.79A338.64,338.64,0,0,1,942,515.78h.37c-1.65-15.5-2-30.49-2-48.24V427.06h21V543.18H937.76L905.39,492a391.76,391.76,0,0,1-22.07-40l-.74.17c.92,15,1.29,30.32,1.29,49.45v41.52Z" transform="translate(-454.61 -426.97)"/><path d="M589,480.35c4.91,2.32,10.1,4,14.41,6.95,15,10.26,12.75,32.35,3.57,42.69-7.72,8.69-17.76,12.59-28.94,13-15.1.52-30.24.2-45.35.22a5.59,5.59,0,0,1-1.24-.36V427.43c.3-.16.61-.47.93-.46,15.73.13,31.48,0,47.2.55a35.18,35.18,0,0,1,20.83,7.55c13.6,10.69,11.19,32.43-4.66,41.79C593.52,478.18,591.13,479.26,589,480.35ZM554.1,525.8c6.24,0,12.1.22,17.94-.09a28.53,28.53,0,0,0,8.7-2c6.25-2.44,9.71-8.09,9.69-15.07s-3.21-12.16-9.3-14.43c-8.81-3.28-17.92-1.75-27-1.95Zm.07-51.25c7.64,0,15.13,1.23,22.31-1.84,6.27-2.69,9.48-8.41,9-15.76-.43-6-3.9-10.35-10.88-11.53-6.66-1.12-13.52-1.08-20.4-1.56Z" transform="translate(-454.61 -426.97)"/><path d="M531.18,565.51c-18.82,0-37.64-.43-56.46-.74-5.08-.09-10.15-.54-15.23-.7-2.49-.09-4.91-1-4.88-3.43s2.45-3.34,5-3.36c20.57-.22,41.14-.6,61.71-.71,56.32-.32,112.63-.49,169-.8,16.94-.09,33.89-.72,50.84-.68q85.21.2,170.44.73c17.45.09,34.9.43,52.34.75,5.71.1,11.41.42,17.1.75,2.12.13,4.36.43,4.28,3.43s-2.35,3.24-4.44,3.26c-13.2.07-41.14.44-41.66.49-7.63,0-13.18.28-20.81.29" transform="translate(-454.61 -426.97)"/></svg>