<?xml version="1.0" encoding="iso-8859-1"?>
<!-- Generator: Adobe Illustrator 19.0.0, SVG Export Plug-In . SVG Version: 6.00 Build 0)  -->
<svg version="1.1" id="Layer_1" xmlns="http://www.w3.org/2000/svg" xmlns:xlink="http://www.w3.org/1999/xlink" x="0px" y="0px"
	 viewBox="0 0 511.999 511.999" style="enable-background:new 0 0 511.999 511.999;" xml:space="preserve">
<path style="fill:#A6673A;" d="M28.529,507.1L4.892,483.463c-6.479-6.479-6.536-17.106,0-23.631l135.876-135.882l47.268,47.268
	L52.16,507.095C45.486,513.769,34.925,513.495,28.529,507.1z"/>
<path style="fill:#99522E;" d="M28.529,507.1c6.395,6.395,16.957,6.669,23.631-0.006l135.876-135.876l-23.634-23.634L16.708,495.279
	L28.529,507.1z"/>
<path style="fill:#88CC2A;" d="M459.824,52.163c-3.498-3.504-8.35-5.304-13.328-4.825L186.524,70.975
	c-6.457,0.587-11.996,4.852-14.204,10.951c-2.204,6.099-0.685,12.92,3.901,17.506l33.853,33.853l-94.449,8.59
	c-14.104,1.283-20.296,18.464-10.303,28.457l33.853,33.853l-94.454,8.59c-14.124,1.286-20.275,18.485-10.303,28.457l236.341,236.341
	c9.96,9.977,27.171,3.821,28.457-10.303l8.59-94.454l33.853,33.859c9.943,9.955,27.169,3.849,28.457-10.303l8.59-94.454
	l33.859,33.853c9.943,9.955,27.17,3.844,28.457-10.303l23.631-259.972C465.101,60.552,463.333,55.667,459.824,52.163z
	 M388.925,193.963c-19.601,19.601-51.306,19.599-70.905,0c-19.592-19.593-19.594-51.3,0.006-70.9
	c19.592-19.593,51.3-19.594,70.9,0.006C408.471,142.614,408.471,174.417,388.925,193.963z"/>
<path style="fill:#7FB335;" d="M459.824,52.163l-70.902,70.902l0.002,0.002c19.546,19.546,19.546,51.348,0,70.894
	c-19.601,19.599-51.302,19.599-70.902,0.002L152.586,359.4l118.17,118.17c9.96,9.977,27.171,3.821,28.457-10.303l8.59-94.454
	l33.853,33.859c9.943,9.955,27.169,3.849,28.457-10.303l8.59-94.454l33.859,33.853c9.943,9.955,27.17,3.844,28.457-10.303
	L464.65,65.492C465.101,60.552,463.333,55.667,459.824,52.163z"/>
<path style="fill:#736056;" d="M365.294,146.7c-6.528-6.522-6.528-17.104,0-23.631L483.461,4.896c6.528-6.528,17.104-6.528,23.631,0
	c6.528,6.522,6.528,17.104,0,23.631L388.925,146.7C382.396,153.227,371.821,153.227,365.294,146.7z"/>
<path style="fill:#665247;" d="M365.294,146.7c6.528,6.528,17.104,6.528,23.631,0L507.092,28.526c6.528-6.528,6.528-17.108,0-23.631
	L365.292,146.696L365.294,146.7z"/>
<g>
</g>
<g>
</g>
<g>
</g>
<g>
</g>
<g>
</g>
<g>
</g>
<g>
</g>
<g>
</g>
<g>
</g>
<g>
</g>
<g>
</g>
<g>
</g>
<g>
</g>
<g>
</g>
<g>
</g>
</svg>
