<?xml version="1.0" encoding="iso-8859-1"?>
<!-- Generator: Adobe Illustrator 17.1.0, SVG Export Plug-In . SVG Version: 6.00 Build 0)  -->
<!DOCTYPE svg PUBLIC "-//W3C//DTD SVG 1.1//EN" "http://www.w3.org/Graphics/SVG/1.1/DTD/svg11.dtd">
<svg version="1.1" id="Capa_1" xmlns="http://www.w3.org/2000/svg" xmlns:xlink="http://www.w3.org/1999/xlink" x="0px" y="0px"
	 viewBox="0 0 212.294 212.294" style="enable-background:new 0 0 212.294 212.294;" xml:space="preserve">
<path d="M58.8,212.291c-2.242,0-4.35-0.873-5.935-2.459L5.362,162.329C1.904,158.872,0,154.275,0,149.385s1.904-9.486,5.362-12.943
	L136.448,5.355c7.137-7.137,18.751-7.137,25.888,0l0,0l47.503,47.504c3.272,3.272,3.272,8.598,0,11.87
	c-1.586,1.586-3.694,2.459-5.936,2.459c-2.242,0-4.35-0.873-5.936-2.459l-26.805-26.806c-2.186-2.185-5.743-2.186-7.93,0
	c-2.186,2.187-2.186,5.744,0,7.931l26.264,26.264c1.73,1.729,2.683,4.03,2.683,6.477s-0.953,4.747-2.683,6.477
	c-3.571,3.571-9.382,3.573-12.954,0L150.28,58.807c-2.186-2.185-5.743-2.186-7.93,0c-1.059,1.06-1.643,2.468-1.643,3.966
	c0,1.497,0.583,2.905,1.642,3.965l26.264,26.264c1.73,1.729,2.683,4.03,2.683,6.477s-0.953,4.747-2.683,6.477
	c-3.57,3.573-9.382,3.572-12.953,0l-26.264-26.264c-2.187-2.186-5.744-2.186-7.931,0c-2.186,2.187-2.186,5.744,0,7.931
	l26.264,26.264c1.73,1.729,2.683,4.03,2.683,6.477s-0.953,4.747-2.683,6.477c-1.729,1.73-4.03,2.684-6.477,2.684
	s-4.747-0.953-6.477-2.684l-26.263-26.264c-2.187-2.186-5.744-2.186-7.931,0c-2.186,2.187-2.186,5.744,0,7.931l26.264,26.264
	c3.571,3.57,3.571,9.382,0,12.954c-3.571,3.57-9.383,3.572-12.954,0l-26.264-26.264c-1.06-1.06-2.467-1.643-3.965-1.643
	c-1.498,0-2.905,0.583-3.964,1.643c-1.06,1.06-1.643,2.468-1.643,3.965s0.583,2.905,1.643,3.965l26.264,26.264
	c3.571,3.572,3.571,9.384,0,12.954c-3.571,3.571-9.382,3.572-12.954,0l-26.264-26.264c-2.187-2.186-5.743-2.186-7.931,0
	c-2.186,2.187-2.186,5.744,0,7.931l26.263,26.264c1.73,1.729,2.683,4.03,2.683,6.477s-0.953,4.747-2.683,6.477
	c-1.73,1.73-4.03,2.683-6.477,2.683s-4.747-0.952-6.477-2.683L45.86,163.227c-2.187-2.186-5.744-2.186-7.931,0
	c-2.186,2.187-2.186,5.744,0,7.931l26.805,26.805c1.585,1.585,2.459,3.693,2.459,5.935c0,2.242-0.874,4.351-2.459,5.936
	C63.15,211.418,61.042,212.291,58.8,212.291z M149.392,4.999c-3.407,0-6.814,1.297-9.409,3.891L8.897,139.977
	C6.384,142.49,5,145.831,5,149.385c0,3.555,1.384,6.896,3.897,9.409L56.4,206.297c1.283,1.282,3.519,1.281,4.799,0
	c0.641-0.642,0.995-1.493,0.995-2.4c0-0.906-0.354-1.758-0.994-2.399l-26.805-26.805c-4.136-4.136-4.136-10.865,0-15.001
	c4.136-4.137,10.865-4.137,15.001,0l26.264,26.264c1.622,1.621,4.261,1.621,5.883,0c0.786-0.786,1.218-1.83,1.218-2.941
	s-0.433-2.155-1.218-2.941l-26.264-26.264c-4.136-4.137-4.135-10.866,0-15.001c4.137-4.135,10.866-4.137,15.001,0l26.264,26.264
	c1.623,1.622,4.262,1.622,5.883,0c1.622-1.622,1.622-4.262,0-5.884l-26.263-26.264c-2.004-2.003-3.107-4.667-3.107-7.5
	s1.104-5.497,3.107-7.5c2.003-2.004,4.667-3.107,7.5-3.107c2.833,0,5.498,1.104,7.501,3.107l26.263,26.264
	c1.622,1.62,4.261,1.622,5.883,0c1.622-1.622,1.622-4.262,0-5.884L97.046,112.04c-4.135-4.135-4.136-10.864,0-15.001
	c4.136-4.135,10.866-4.137,15.001,0l26.264,26.264c0.786,0.786,1.831,1.219,2.941,1.219s2.155-0.433,2.941-1.219
	c0.786-0.786,1.219-1.83,1.219-2.941s-0.433-2.155-1.218-2.941L117.93,91.157c-4.135-4.135-4.136-10.864,0-15.001
	c4.137-4.135,10.867-4.137,15.001,0l26.264,26.264c1.622,1.621,4.261,1.621,5.883,0c0.786-0.786,1.218-1.83,1.218-2.941
	s-0.433-2.155-1.218-2.941l-26.264-26.264c-2.003-2.003-3.107-4.667-3.107-7.501c0-2.833,1.104-5.497,3.107-7.5
	c4.136-4.136,10.866-4.136,15.001,0l26.264,26.264c1.623,1.622,4.262,1.621,5.883,0c1.622-1.622,1.622-4.261,0-5.883l-26.264-26.264
	c-4.136-4.136-4.136-10.865,0-15.001c4.136-4.138,10.865-4.136,15,0l26.806,26.806c1.282,1.281,3.517,1.281,4.8,0
	c1.323-1.323,1.323-3.477,0-4.8L158.801,8.89C156.207,6.296,152.799,4.999,149.392,4.999z M18.636,156.13
	c-0.64,0-1.28-0.244-1.768-0.732c-0.977-0.977-0.977-2.559,0-3.535l135-135c0.976-0.977,2.56-0.977,3.535,0
	c0.977,0.977,0.977,2.559,0,3.535l-135,135C19.916,155.886,19.276,156.13,18.636,156.13z"/>
<g>
</g>
<g>
</g>
<g>
</g>
<g>
</g>
<g>
</g>
<g>
</g>
<g>
</g>
<g>
</g>
<g>
</g>
<g>
</g>
<g>
</g>
<g>
</g>
<g>
</g>
<g>
</g>
<g>
</g>
</svg>
