<?xml version="1.0" encoding="iso-8859-1"?>
<!-- Generator: Adobe Illustrator 19.0.0, SVG Export Plug-In . SVG Version: 6.00 Build 0)  -->
<svg version="1.1" id="Layer_1" xmlns="http://www.w3.org/2000/svg" xmlns:xlink="http://www.w3.org/1999/xlink" x="0px" y="0px"
	 viewBox="0 0 496.345 496.345" style="enable-background:new 0 0 496.345 496.345;" xml:space="preserve">
<polygon style="fill:#778587;" points="477.237,459.373 248.437,36.973 19.637,459.373 "/>
<polygon style="fill:#939EA0;" points="19.637,459.373 310.037,459.373 165.237,191.373 "/>
<path style="fill:#2F4770;" d="M477.237,479.373h-457.6c-7.2,0-12.8-4-16.8-9.6c-3.2-5.6-4-12.8-0.8-19.2l229.6-423.2
	c3.2-6.4,9.6-10.4,16.8-10.4c7.2,0,13.6,4,16.8,10.4l228.8,423.2c3.2,6.4,3.2,13.6-0.8,19.2
	C490.037,475.373,483.637,479.373,477.237,479.373z M52.437,440.173h392l-196-362.4L52.437,440.173z"/>
<g>
	<path style="fill:#657475;" d="M222.037,288.973c11.2,0,18.4,2.4,21.6,4.8c2.4,0.8,4.8,0.8,6.4,0c2.4-0.8,4-2.4,4-4.8l4-13.6
		c0.8-3.2-0.8-7.2-4-8.8c-4-1.6-14.4-6.4-33.6-6.4c-43.2,0-73.6,30.4-73.6,73.6s27.2,71.2,69.6,71.2c14.4,0,28-2.4,36.8-6.4
		c3.2-1.6,4.8-5.6,4-8.8l-2.4-13.6c-0.8-2.4-2.4-4-4-4.8c-2.4-0.8-4.8-0.8-6.4,0c-5.6,2.4-14.4,4.8-23.2,4.8
		c-25.6,0-40.8-15.2-40.8-42.4C180.437,305.773,196.437,288.973,222.037,288.973z"/>
	<path style="fill:#657475;" d="M341.237,373.773h-45.6v-104c0-4-3.2-8-8-8h-16c-4,0-8,3.2-8,8v125.6c0,4,3.2,8,8,8h69.6
		c4,0,8-3.2,8-8v-13.6C348.437,376.973,345.237,373.773,341.237,373.773z"/>
</g>
<path style="fill:#CAD9DD;" d="M222.037,274.573c11.2,0,18.4,2.4,21.6,4.8c2.4,0.8,4.8,0.8,6.4,0c2.4-0.8,4-2.4,4-4.8l4-13.6
	c0.8-3.2-0.8-7.2-4-8.8c-4-1.6-14.4-6.4-33.6-6.4c-43.2,0-73.6,30.4-73.6,73.6s27.2,71.2,69.6,71.2c14.4,0,28-2.4,36.8-6.4
	c3.2-1.6,4.8-5.6,4-8.8l-3.2-12.8c-0.8-2.4-2.4-4-4-4.8c-2.4-0.8-4.8-0.8-6.4,0c-5.6,2.4-14.4,4.8-23.2,4.8
	c-25.6,0-40.8-15.2-40.8-42.4C180.437,291.373,196.437,274.573,222.037,274.573z"/>
<path style="fill:#FAFDFE;" d="M218.037,390.573c14.4,0,28-2.4,36.8-6.4c3.2-1.6,4.8-5.6,4-8.8l-3.2-12.8c-0.8-2.4-2.4-4-4-4.8
	c-2.4-0.8-4.8-0.8-6.4,0c-5.6,2.4-14.4,4.8-23.2,4.8c-25.6,0-40.8-15.2-40.8-42.4c0-23.2,11.2-38.4,30.4-42.4l-14.4-26.4
	c-29.6,9.6-48.8,35.2-48.8,69.6C148.437,362.573,175.637,390.573,218.037,390.573z"/>
<path style="fill:#CAD9DD;" d="M341.237,359.373h-45.6v-104c0-4-3.2-8-8-8h-16c-4,0-8,3.2-8,8v125.6c0,4,3.2,8,8,8h69.6
	c4,0,8-3.2,8-8v-13.6C348.437,362.573,345.237,359.373,341.237,359.373z"/>
<path style="fill:#FAFDFE;" d="M263.637,372.973v7.2c0,4,3.2,8,8,8h0.8L263.637,372.973z"/>
<g>
</g>
<g>
</g>
<g>
</g>
<g>
</g>
<g>
</g>
<g>
</g>
<g>
</g>
<g>
</g>
<g>
</g>
<g>
</g>
<g>
</g>
<g>
</g>
<g>
</g>
<g>
</g>
<g>
</g>
</svg>
