<?xml version="1.0" encoding="iso-8859-1"?>
<!-- Generator: Adobe Illustrator 19.0.0, SVG Export Plug-In . SVG Version: 6.00 Build 0)  -->
<svg version="1.1" id="Layer_1" xmlns="http://www.w3.org/2000/svg" xmlns:xlink="http://www.w3.org/1999/xlink" x="0px" y="0px"
	 viewBox="0 0 512 512" style="enable-background:new 0 0 512 512;" xml:space="preserve">
<path style="fill:#92E0D3;" d="M381.975,182.457v-56.481H130.024v56.481l3.474,5.703c13.845,22.734,13.845,51.294,0,74.027
	l-3.474,5.703V512h251.952V267.891l-3.474-5.703c-13.845-22.734-13.845-51.294,0-74.027L381.975,182.457z"/>
<path style="fill:#6DB2A6;" d="M381.975,182.457v-56.481H255.999V512h125.975V267.891l-3.474-5.703
	c-13.845-22.734-13.845-51.294,0-74.027L381.975,182.457z"/>
<path style="fill:#ECD788;" d="M381.975,125.975C381.975,56.401,325.574,0,255.999,0l0,0c-69.574,0-125.975,56.401-125.975,125.975
	v56.481h251.952v-56.481H381.975z"/>
<path style="fill:#E7C64B;" d="M381.975,125.975C381.975,56.401,325.574,0,255.999,0l0,0c0,28.13,0.557,182.457,0.557,182.457
	h125.419V125.975z"/>
<path style="fill:#EDEDEE;" d="M203.14,125.975h-33.391c0-35.483,22.29-67.863,55.465-80.572l11.945,31.181
	C216.811,84.38,203.14,104.229,203.14,125.975z"/>
<rect x="171.72" y="283.514" style="fill:#D0F0EA;" width="168.548" height="151.841"/>
<rect x="255.999" y="283.514" style="fill:#92E0D3;" width="84.28" height="151.841"/>
<g>
</g>
<g>
</g>
<g>
</g>
<g>
</g>
<g>
</g>
<g>
</g>
<g>
</g>
<g>
</g>
<g>
</g>
<g>
</g>
<g>
</g>
<g>
</g>
<g>
</g>
<g>
</g>
<g>
</g>
</svg>
