<?xml version="1.0" encoding="iso-8859-1"?>
<!-- Generator: Adobe Illustrator 19.0.0, SVG Export Plug-In . SVG Version: 6.00 Build 0)  -->
<svg version="1.1" id="Layer_1" xmlns="http://www.w3.org/2000/svg" xmlns:xlink="http://www.w3.org/1999/xlink" x="0px" y="0px"
	 viewBox="0 0 222.22 222.22" style="enable-background:new 0 0 222.22 222.22;" xml:space="preserve">
<g>
	<g>
		<g>
			<path d="M191.918,80.808C191.918,36.251,155.667,0,111.11,0S30.302,36.251,30.302,80.808c0,43.193,34.093,78.478,76.768,80.603
				v36.568H92.928c-2.231,0-4.04,1.809-4.04,4.04c0,2.231,1.809,4.04,4.04,4.04h14.141v12.121c0,2.231,1.809,4.04,4.04,4.04
				c2.231,0,4.04-1.809,4.04-4.04v-12.121h14.364c2.231,0,4.04-1.809,4.04-4.04c0-2.231-1.809-4.04-4.04-4.04h-14.364v-36.568
				C157.825,159.286,191.918,124.001,191.918,80.808z M111.11,153.535c-40.102,0-72.727-32.625-72.727-72.727
				S71.008,8.081,111.11,8.081s72.727,32.625,72.727,72.727S151.212,153.535,111.11,153.535z"/>
			<path d="M111.11,20.202c-33.418,0-60.606,27.188-60.606,60.606c0,33.418,27.188,60.606,60.606,60.606
				c33.418,0,60.606-27.188,60.606-60.606C171.716,47.39,144.528,20.202,111.11,20.202z M111.11,133.333
				c-28.963,0-52.525-23.561-52.525-52.525s23.562-52.525,52.525-52.525s52.525,23.562,52.525,52.525
				S140.073,133.333,111.11,133.333z"/>
		</g>
	</g>
</g>
<g>
</g>
<g>
</g>
<g>
</g>
<g>
</g>
<g>
</g>
<g>
</g>
<g>
</g>
<g>
</g>
<g>
</g>
<g>
</g>
<g>
</g>
<g>
</g>
<g>
</g>
<g>
</g>
<g>
</g>
</svg>
