<?xml version="1.0" encoding="iso-8859-1"?>
<!-- Generator: Adobe Illustrator 19.0.0, SVG Export Plug-In . SVG Version: 6.00 Build 0)  -->
<svg version="1.1" id="Layer_1" xmlns="http://www.w3.org/2000/svg" xmlns:xlink="http://www.w3.org/1999/xlink" x="0px" y="0px"
	 viewBox="0 0 463 463" style="enable-background:new 0 0 463 463;" xml:space="preserve">
<g>
	<g>
		<path d="M447,377.234V367.5c0-10.336-6.71-19.128-16-22.266v-24.093c4.899-4.31,8-10.619,8-17.641v-192
			c0-39.425-32.075-71.5-71.5-71.5h-272C56.075,40,24,72.075,24,111.5v192c0,7.023,3.101,13.332,8,17.641v24.093
			c-9.29,3.138-16,11.93-16,22.266v9.734c-9.29,3.138-16,11.93-16,22.266C0,412.458,10.542,423,23.5,423h416
			c12.958,0,23.5-10.542,23.5-23.5C463,389.164,456.29,380.372,447,377.234z M39,111.5C39,80.346,64.346,55,95.5,55h272
			c31.154,0,56.5,25.346,56.5,56.5v192c0,4.687-3.813,8.5-8.5,8.5h-64c-4.687,0-8.5-3.813-8.5-8.5v-104
			c0-12.958-10.542-23.5-23.5-23.5h-176c-12.958,0-23.5,10.542-23.5,23.5v104c0,4.687-3.813,8.5-8.5,8.5h-64
			c-4.687,0-8.5-3.813-8.5-8.5V111.5z M416,326.987V344h-25v-17h24.5C415.668,327,415.833,326.991,416,326.987z M376,327v17h-25
			v-17.013c0.167,0.004,0.332,0.013,0.5,0.013H376z M336,321.141V344H127v-22.859c4.899-4.31,8-10.619,8-17.641v-104
			c0-4.687,3.813-8.5,8.5-8.5h176c4.687,0,8.5,3.813,8.5,8.5v104C328,310.523,331.101,316.832,336,321.141z M112,326.987V344H87v-17
			h24.5C111.668,327,111.833,326.991,112,326.987z M72,327v17H47v-17.013c0.167,0.004,0.332,0.013,0.5,0.013H72z M31,367.5
			c0-4.687,3.813-8.5,8.5-8.5h384c4.687,0,8.5,3.813,8.5,8.5v8.5H31V367.5z M439.5,408h-416c-4.687,0-8.5-3.813-8.5-8.5
			s3.813-8.5,8.5-8.5h416c4.687,0,8.5,3.813,8.5,8.5S444.187,408,439.5,408z"/>
	</g>
</g>
<g>
</g>
<g>
</g>
<g>
</g>
<g>
</g>
<g>
</g>
<g>
</g>
<g>
</g>
<g>
</g>
<g>
</g>
<g>
</g>
<g>
</g>
<g>
</g>
<g>
</g>
<g>
</g>
<g>
</g>
</svg>
