<?xml version="1.0" standalone="yes"?>
<svg xmlns="http://www.w3.org/2000/svg" width="512" height="512">
<path style="fill:#fefefe; stroke:none;" d="M0 0L0 512L314 512L314 511C301.737 509.189 293.914 496.845 283 495.148C268.072 492.827 251.118 495 236 495L141 495L97 495C91.2723 495 83.6079 496.462 79.2785 491.852C74.8908 487.18 75.3993 478.975 74.5764 473C72.5126 458.016 70.8686 442.974 68.7292 428C61.9319 380.425 57.068 332.574 50.2708 285C48.4643 272.356 46.9469 259.664 45.2816 247C44.7692 243.103 45.3386 235.772 42.821 232.603C38.8889 227.655 26.7429 232.827 21.189 228.991C13.681 223.804 15.1381 194.279 17.4336 186.004C20.7607 174.01 49.311 179 59 179L59 131C59 123.914 57.4545 114.658 60.2284 108C66.9355 91.9005 87.0611 81.5623 92.436 65C99.151 44.3079 85.7059 19.4591 98 0L0 0z"/>
<path style="fill:#0e0e12; stroke:none;" d="M59 179C50.0445 179 20.4781 174.235 17.4336 185.015C14.706 194.674 16.98 207.974 17 218C17.008 221.991 16.7931 226.332 20.3441 228.991C26.1383 233.329 38.7932 227.301 42.821 233.318C45.2405 236.932 44.7267 243.78 45.2816 248C46.9032 260.332 48.4178 272.681 50.1304 285C56.4235 330.268 61.8142 375.679 67.7184 421C69.9759 438.329 72.0392 455.688 74.4236 473C75.2374 478.909 74.6246 488.285 79.2785 492.682C86.0459 499.076 109.03 495 118 495L229 495C245.523 495 266.999 491.312 283 495.318C295.376 498.416 302.569 510.851 317 511.91C328.351 512.742 341.943 513.351 353 510.522C364.79 507.505 374.417 501.469 387 502.039C398.25 502.549 408.016 509.407 419 511.384C450.306 517.019 489.445 506.469 494.7 470C496.417 458.081 495 445.038 495 433C495 420.297 496.715 406.297 493.087 394C482.91 359.503 441.697 351.278 411 360.888C392.115 366.8 382.331 370.853 363 363.204C359.723 361.907 354.013 361.18 351.643 358.437C347.292 353.401 353.378 332.494 354.155 326C357.886 294.837 365.74 262.371 366 231C372.753 231 384.271 233.193 389.772 228.486C396.926 222.364 393.115 199.751 392.996 191C392.947 187.348 392.696 183.373 389.606 180.894C382.086 174.861 359.419 179 350 179C350 170.44 352.868 155.461 348.258 148C336.504 128.981 308 119.353 308 95C308 90.5918 307.051 84.9041 309.603 81.0394C312.068 77.3075 316.461 74.6234 320 72L341 115L358 108C354.517 95.9106 346.869 84.2441 341.247 73C339.481 69.4682 334.674 63.1964 336.816 59.1705C343.968 45.7334 365.477 54.7555 376.999 51.4275C380.227 50.4951 382.833 48.3223 383.682 44.9954C385.946 36.1197 386.686 13.5551 383.397 5.01929C381.332 -0.337585 375.78 0.00216675 371 0L337 0C303.185 0 266.692 -5.41083 239 18.3001C225.398 29.9467 216.873 46.4774 213.921 64C212.938 69.8342 211.078 79.0793 216.228 83.4861C221.415 87.9243 231.653 86 238 86C238 92.1015 239.75 101.444 236.972 107C231.861 117.222 217.868 122.2 213.742 133C209.057 145.266 213 165.871 213 179L197 179L197 130C197 122.914 198.545 113.658 195.772 107C189.064 90.9005 168.939 80.5623 163.564 64C159.469 51.3817 163 32.2727 163 19C163 13.4153 164.005 5.39972 158.856 1.60339C151.521 -3.80359 130.94 0 122 0C115.406 0 103.958 -2.18652 98.0579 1.02777C92.1986 4.21991 93.0004 12.3753 93 18C92.9991 32.2321 94.8783 47.92 92.8557 62C90.4167 78.9792 66.7677 91.3033 60.2284 107C57.4545 113.658 59 122.914 59 130L59 179z"/>
<path style="fill:#fefefe; stroke:none;" d="M158 0C170.294 19.4592 156.849 44.3079 163.564 65C168.939 81.5623 189.064 91.9005 195.772 108C198.546 114.658 197 123.914 197 131L197 179L213 179C213 166.142 209.152 146.016 213.742 134C217.868 123.2 231.861 118.222 236.972 108C239.86 102.224 238 92.3499 238 86C231.955 86 223.378 87.5282 218.044 84.142C206.702 76.9413 215.956 53.2059 220.32 44C230.615 22.2848 253.344 3.01385 278 1L242 0L158 0M380 0C386.189 9.83835 386.575 32.5366 383.682 43.9992C382.743 47.7208 379.613 50.3889 376 51.4275C365.188 54.5353 342.125 45.7546 336.133 59.1705C334.294 63.2874 338.976 69.4454 340.753 73C346.542 84.5786 353.025 96.0506 358 108L341 115L320 72C308.38 77.932 302.819 95.5834 309.028 108C317.252 124.448 338.588 133.353 348.258 149C352.753 156.275 350 170.663 350 179C359.489 179 382.342 174.847 389.606 181.573C392.578 184.325 392.944 188.192 392.996 192C393.121 201.188 396.847 222.218 388.891 228.486C383.217 232.956 372.785 231 366 231C365.35 262.506 357.568 294.669 354.05 326C353.287 332.798 347.123 352.832 351.042 358.437C354.696 363.661 371.88 367.303 378 368.385C391.3 370.736 401.75 363.794 414 360.298C427.345 356.49 445.723 356.028 459 360.36C496.705 372.661 495 408.675 495 441C495 470.345 490.252 505.646 454 511L454 512L512 512L512 0L380 0z"/>
<path style="fill:#ed6c26; stroke:none;" d="M111 17L111 60L145 60L145 17L111 17M231 68L275 68L296 67.4113L316 52.3997L332.397 37.8295L333 17C298.261 17 257.244 11.7633 237.796 48C234.397 54.3327 232.362 60.9825 231 68M350 17L350 34L367 34L367 17L350 17z"/>
<path style="fill:#64afd8; stroke:none;" d="M87 102L169 102C164.721 95.1522 156.288 80.8142 148.711 77.6034C142.224 74.8547 131 77 124 77C119.061 77 110.82 75.4327 106.439 78.0278C99.0308 82.4158 91.5182 94.769 87 102M256 85L256 86L290 86L256 85z"/>
<path style="fill:#fefefe; stroke:none;" d="M256 86L256 102L290 102L290 86L256 86z"/>
<path style="fill:#64afd8; stroke:none;" d="M251 119L251 120L295 120C283.537 115.19 263.48 119 251 119M77 120L77 179L179 179L179 120L77 120z"/>
<path style="fill:#fefefe; stroke:none;" d="M231 179L332 179C332 172.403 333.97 161.995 330.972 156C326.131 146.318 313.622 137.622 306 130C302.788 126.788 299.385 122.22 295 120.603C289.591 118.609 281.709 120 276 120C257.161 120 243.925 120.067 232.603 138C226.919 147.004 231 168.47 231 179z"/>
<path style="fill:#64afd8; stroke:none;" d="M230 140L230 179L231 179C231 167.828 234.311 150.274 230 140z"/>
<path style="fill:#f5ad46; stroke:none;" d="M332 157L332 179L333 179L332 157z"/>
<path style="fill:#64afd8; stroke:none;" d="M34 213L102 213L102 196L54 196L35.6034 197.028L34 213M137 401L137 324L152.397 325.603L154 345L154 401L171 401L171 324L186.397 325.603L188 345L188 401L205 401L205 324L222 324L222 401C238.648 399.535 239 385.202 239 372L239 319C239 312.392 237.061 302.012 240.179 296.019C244.118 288.447 251.053 291.296 257 294.248C266.048 298.739 289.77 316.541 298.293 304.891C304.624 296.238 295.953 289.749 289 286.248L256 269.753C250.885 267.196 244.011 264.943 240.742 259.957C237.485 254.988 239 246.676 239 241L239 196L150 196C144.199 196 123.778 192.868 120.028 197.603C117.825 200.385 119 206.672 119 210L119 243L119 364C119 378.778 116.718 400.06 137 401M256 196L256 213L375 213L375 196L256 196M61 231L93 478L276 478C272.876 462.859 273 448.433 273 433C273 402.427 275.732 371.648 310 360.52C317.051 358.23 324.657 358 332 358L342.155 280L348 231L256 231C256 236.035 254.06 246.112 257.028 250.363C259.835 254.384 267.723 256.615 272 258.753C286.649 266.078 309.101 272.595 315.742 289C323.8 308.903 303.766 331.105 283 325.211C273.488 322.512 265.514 315.741 256 313L256 370C256 381.592 256.867 393.078 249.699 402.996C232.212 427.194 188.16 418 162 418C151.979 418 140.892 419.326 131 417.674C122.045 416.179 113.861 410.294 108.637 403C98.4921 388.833 102 367.423 102 351L102 231L61 231z"/>
<path style="fill:#ed6c26; stroke:none;" d="M323 375L323 376L339 376L323 375M429 375L429 376L445 376L429 375M316 376L317 377L316 376z"/>
<path style="fill:#f5ad46; stroke:none;" d="M317 376.518C285.664 383.203 281.395 428.431 311 440.801C335.432 451.009 356.627 433.589 380 433.015C405.573 432.387 428.798 450.074 455 441.532C483.642 432.195 484.519 389.699 457 378.454C431.054 367.852 409.098 386.66 384 386.66C360.556 386.66 341.578 371.274 317 376.518z"/>
<path style="fill:#ed6c26; stroke:none;" d="M345.667 376.333L346.333 376.667L345.667 376.333M421.667 376.333L422.333 376.667L421.667 376.333M451 376L452 377L451 376M313 377L314 378L313 377M350 377L351 378L350 377M417 377L418 378L417 377M454 377L455 378L454 377M310 378L311 379L310 378M353 378L354 379L353 378M414 378L415 379L414 378M457 378L458 379L457 378M308 379L309 380L308 379M355 379L356 380L355 379M412 379L413 380L412 379M459 379L460 380L459 379M357 380L358 381L357 380M410 380L411 381L410 380M360 381L361 382L360 381M407 381L408 382L407 381M362 382L363 383L362 382M405 382L406 383L405 382M302 383L303 384L302 383M365 383L366 384L365 383M402 383L403 384L402 383M465 383L466 384L465 383M301 384L302 385L301 384M368 384L369 385L368 384M399 384L400 385L399 384M466 384L467 385L466 384M373.667 385.333L374.333 385.667L373.667 385.333M393.667 385.333L394.333 385.667L393.667 385.333M299 386L300 387L299 386M381 386L381 387L387 387L381 386M468 386L469 387L468 386M298 387L299 388L298 387M469 387L470 388L469 387M295 391L296 392L295 391M472 391L473 392L472 391M350 392L350 393L367 393L350 392M435 392L435 393L452 393L452 409C458.643 393.168 447.107 392 435 392M294 393L295 394L294 393z"/>
<path style="fill:#0e0e12; stroke:none;" d="M350 393L350 410L367 410L367 393L350 393M435 393C435 408.578 436.422 410 452 410L452 393L435 393z"/>
<path style="fill:#ed6c26; stroke:none;" d="M473 393L474 394L473 393M293 395L294 396L293 395M474 395L475 396L474 395M292 397L293 398L292 397M475 397L476 398L475 397M291 400L292 401L291 400M476 400L477 401L476 400M315 401L315 418L316 418L315 401z"/>
<path style="fill:#0e0e12; stroke:none;" d="M316 401L316 418L333 418L333 401L316 401M401 401L401 418L418 418L418 401L401 401z"/>
<path style="fill:#ed6c26; stroke:none;" d="M290 405L290 409L291 409L290 405M477 405L477 409L478 409L477 405M435 409L436 410L435 409M290 410L290 414L291 414L290 410M477 410L477 414L478 414L477 410M291 418L292 419L291 418M476 418L477 419L476 418M292 421L293 422L292 421M475 421L476 422L475 421M294 425L295 426L294 425M473 425L474 426L473 425M295 427L296 428L295 427M472 427L473 428L472 427M297 430L298 431L297 430M470 430L471 431L470 430M298 431L299 432L298 431M469 431L470 432L469 431M374.667 433.333L375.333 433.667L374.667 433.333M392.667 433.333L393.333 433.667L392.667 433.333M369 434L370 435L369 434M398 434L399 435L398 434M302 435L303 436L302 435M366 435L367 436L366 435M401 435L402 436L401 435M465 435L466 436L465 435M303 436L304 437L303 436M464 436L465 437L464 436M360 437L361 438L360 437M407 437L408 438L407 437M306 438L307 439L306 438M358 438L359 439L358 438M409 438L410 439L409 438M461 438L462 439L461 438M308 439L309 440L308 439M459 439L460 440L459 439M353 440L354 441L353 440M414 440L415 441L414 440M312 441L313 442L312 441M350 441L351 442L350 441M417 441L418 442L417 441M455 441L456 442L455 441M315.667 442.333L316.333 442.667L315.667 442.333M346.667 442.333L347.333 442.667L346.667 442.333M420.667 442.333L421.333 442.667L420.667 442.333M451.667 442.333L452.333 442.667L451.667 442.333M321 443L321 444L343 444L321 443M425 443L425 444L447 444L425 443M290 448L291 449L290 448M477 448L478 449L477 448z"/>
<path style="fill:#f5ad46; stroke:none;" d="M290 449C290 455.934 289.967 463.246 291.764 470C298.313 494.607 327.787 498.645 349 493.076C361.249 489.86 370.91 484 384 484C397.091 484 406.751 489.86 419 493.076C440.213 498.645 469.687 494.607 476.236 470C478.034 463.246 478 455.934 478 449C472.667 451.051 468.348 454.947 463 457.074C450.956 461.864 435.759 462.404 423 460.572C409.545 458.64 397.792 450.029 384 450.029C370.208 450.029 358.455 458.64 345 460.572C332.241 462.404 317.044 461.864 305 457.074C299.652 454.947 295.333 451.051 290 449z"/>
<path style="fill:#ed6c26; stroke:none;" d="M292 449L293 450L292 449M475 449L476 450L475 449M293 450L294 451L293 450M377.667 450.333L378.333 450.667L377.667 450.333M389.667 450.333L390.333 450.667L389.667 450.333M474 450L475 451L474 450M372.667 451.333L373.333 451.667L372.667 451.333M394.667 451.333L395.333 451.667L394.667 451.333M296 452L297 453L296 452M369 452L370 453L369 452M398 452L399 453L398 452M471 452L472 453L471 452M297 453L298 454L297 453M367 453L368 454L367 453M400 453L401 454L400 453M470 453L471 454L470 453M299 454L300 455L299 454M364 454L365 455L364 454M403 454L404 455L403 454M468 454L469 455L468 454M301 455L302 456L301 455M362 455L363 456L362 455M405 455L406 456L405 455M466 455L467 456L466 455M303 456L304 457L303 456M360 456L361 457L360 456M407 456L408 457L407 456M464 456L465 457L464 456M305 457L306 458L305 457M357 457L358 458L357 457M410 457L411 458L410 457M462 457L463 458L462 457M309 458L310 459L309 458M354 458L355 459L354 458M413 458L414 459L413 458M458 458L459 459L458 458M312.667 459.333L313.333 459.667L312.667 459.333M349 459L349 460L352 460L349 459M416 459L416 460L419 460L416 459M454.667 459.333L455.333 459.667L454.667 459.333M317 460L317 461L321 461L317 460M342 460L342 461L346 461L342 460M422 460L422 461L426 461L422 460M447 460L447 461L451 461L447 460M290 461L290 465L291 465L290 461M477 461L477 465L478 465L477 461M291 469L292 470L291 469M476 469L477 470L476 469M292 472L293 473L292 472M475 472L476 473L475 472M294 476L295 477L294 476M473 476L474 477L473 476M295 478L296 479L295 478M472 478L473 479L472 478M296 480L297 481L296 480M471 480L472 481L471 480M297 481L298 482L297 481M470 481L471 482L470 481M298 482L299 483L298 482M469 482L470 483L469 482M374 484L374 485L377 485L374 484M391 484L391 485L394 485L391 484M369.667 485.333L370.333 485.667L369.667 485.333M397.667 485.333L398.333 485.667L397.667 485.333M302 486L303 487L302 486M366 486L367 487L366 486M401 486L402 487L401 486M465 486L466 487L465 486M303 487L304 488L303 487M363 487L364 488L363 487M404 487L405 488L404 487M464 487L465 488L464 487M304 488L305 489L304 488M360 488L361 489L360 488M407 488L408 489L407 488M463 488L464 489L463 488M306 489L307 490L306 489M358 489L359 490L358 489M409 489L410 490L409 489M461 489L462 490L461 489M356 490L357 491L356 490M411 490L412 491L411 490M353 491L354 492L353 491M414 491L415 492L414 491M312 492L313 493L312 492M351 492L352 493L351 492M416 492L417 493L416 492M455 492L456 493L455 492M315 493L316 494L315 493M347.667 493.333L348.333 493.667L347.667 493.333M419.667 493.333L420.333 493.667L419.667 493.333M452 493L453 494L452 493M319 494L319 495L324 495L319 494M339 494L339 495L344 495L339 494M424 494L424 495L429 495L424 494M444 494L444 495L449 495L444 494z"/>
<path style="fill:#fefefe; stroke:none;" d="M348 511L348 512L420 512C407.245 505.82 390.337 499.884 376 502.465C366.301 504.21 357.891 510.136 348 511z"/>
</svg>
