<?xml version="1.0" encoding="iso-8859-1"?>
<!-- Generator: Adobe Illustrator 19.0.0, SVG Export Plug-In . SVG Version: 6.00 Build 0)  -->
<svg xmlns="http://www.w3.org/2000/svg" xmlns:xlink="http://www.w3.org/1999/xlink" version="1.1" id="Capa_1" x="0px" y="0px" viewBox="0 0 455.005 455.005" style="enable-background:new 0 0 455.005 455.005;" xml:space="preserve" width="512" height="512">
<g>
	<polygon style="fill:#F2484B;" points="49.545,120.256 384.295,455.005 419.65,419.65 252.251,238.109 70.711,70.711  "/>
	<polygon style="fill:#BD1515;" points="120.256,49.545 70.711,70.711 419.65,419.65 455.005,384.295  "/>
	<polygon style="fill:#BD1515;" points="0,0 20.624,50.087 42.426,42.426 50.087,20.624  "/>
	<path style="fill:#FFCC75;" d="M49.545,120.256c6.258-1.681,12.306-5.065,17.37-10.129c9.101-9.101,12.795-21.373,10.867-32.345   c10.972,1.928,23.244-1.766,32.345-10.867c5.064-5.064,8.448-11.112,10.129-17.37l-0.048-0.048L50.087,20.624L20.624,50.087   l28.874,70.121L49.545,120.256z"/>
	<polygon style="fill:#F48205;" points="334.75,49.545 0,384.295 35.356,419.65 216.896,252.252 384.295,70.711  "/>
	<polygon style="fill:#FF6E1D;" points="405.46,120.256 384.295,70.711 35.356,419.65 70.711,455.005  "/>
	<polygon style="fill:#FF6E1D;" points="455.005,0 404.919,20.624 412.579,42.427 434.382,50.087  "/>
	<path style="fill:#FFCC75;" d="M334.75,49.545c1.681,6.258,5.065,12.306,10.129,17.37c9.101,9.101,21.373,12.795,32.345,10.867   c-1.928,10.972,1.766,23.244,10.867,32.345c5.064,5.064,11.112,8.448,17.37,10.129l0.048-0.048l28.874-70.121l-29.463-29.463   l-70.121,28.874L334.75,49.545z"/>
</g>















</svg>
