<?xml version="1.0" encoding="iso-8859-1"?>
<!-- Generator: Adobe Illustrator 19.0.0, SVG Export Plug-In . SVG Version: 6.00 Build 0)  -->
<svg version="1.1" id="Layer_1" xmlns="http://www.w3.org/2000/svg" xmlns:xlink="http://www.w3.org/1999/xlink" x="0px" y="0px"
	 viewBox="0 0 512.004 512.004" style="enable-background:new 0 0 512.004 512.004;" xml:space="preserve">
<g>
	<path style="fill:#434C6D;" d="M254.067,141.716c-22.912,53.861-64.037,128-116.928,128c-52.882,0-94.007-74.139-116.919-128
		h-1.938c12.142,93.787,12.142,212.05,0,305.838c0,33.07,26.816,59.877,59.886,59.877H196.12c33.07,0,59.877-26.807,59.877-59.877
		c-12.133-93.787-12.133-212.05,0-305.838H254.067z"/>
	<path style="fill:#252E49;" d="M210.286,160.002c-35.346,0-64-28.654-64-64c0-34.752,27.712-62.967,62.235-63.909
		c-32.649-10.341-71.378-9.243-71.378-9.243s-39.104-1.408-71.918,9.216C99.995,32.724,128,61.067,128,96.002
		c0,35.346-28.654,64-64,64c-16.229,0-31.003-6.089-42.286-16.046c19.547,50.039,60.763,125.76,115.429,125.76
		s95.881-75.721,115.429-125.76C241.289,153.913,226.514,160.002,210.286,160.002"/>
	<g>
		<path style="fill:#E8EDEE;" d="M128,96.002c0,35.346-28.654,64-64,64s-64-28.654-64-64s28.654-64,64-64S128,60.656,128,96.002"/>
		<path style="fill:#E8EDEE;" d="M201.143,205.716c0,35.346-28.654,64-64,64s-64-28.654-64-64s28.654-64,64-64
			S201.143,170.37,201.143,205.716"/>
		<path style="fill:#E8EDEE;" d="M274.286,96.002c0,35.346-28.654,64-64,64s-64-28.654-64-64s28.654-64,64-64
			S274.286,60.656,274.286,96.002"/>
	</g>
	<g>
		<path style="fill:#C7D6D8;" d="M91.429,96.002c0,15.15-12.279,27.429-27.429,27.429s-27.429-12.279-27.429-27.429
			S48.85,68.573,64,68.573S91.429,80.852,91.429,96.002"/>
		<path style="fill:#C7D6D8;" d="M237.714,96.002c0,15.15-12.279,27.429-27.429,27.429c-15.15,0-27.429-12.279-27.429-27.429
			s12.279-27.429,27.429-27.429C225.435,68.573,237.714,80.852,237.714,96.002"/>
		<path style="fill:#C7D6D8;" d="M164.571,205.716c0,15.15-12.279,27.429-27.429,27.429c-15.15,0-27.429-12.279-27.429-27.429
			c0-15.15,12.279-27.429,27.429-27.429C152.293,178.288,164.571,190.566,164.571,205.716"/>
	</g>
	<path style="fill:#252E49;" d="M250.883,397.716c-1.417-17.874-2.45-36.242-3.109-54.857H26.508
		c-0.649,18.615-1.682,36.983-3.109,54.857H250.883z"/>
	<path style="fill:#434C6D;" d="M420.571,507.43L420.571,507.43c-24.878,0-44.699-20.809-43.483-45.659l16.055-329.198H448
		l16.055,329.198C465.271,486.621,445.449,507.43,420.571,507.43"/>
	<path style="fill:#252E49;" d="M393.143,132.573H448V96.002h-54.857V132.573z"/>
	<path style="fill:#434C6D;" d="M347.429,50.288c25.271,0,45.714,20.443,45.714,45.714H448c0-25.271,20.443-45.714,45.714-45.714
		H347.429z"/>
	<g>
		<path style="fill:#252E49;" d="M499.405,50.288H341.736c-6.958,0-12.59-5.641-12.59-12.599V17.172
			c0-6.958,5.632-12.599,12.59-12.599h157.669c6.958,0,12.599,5.641,12.599,12.599v20.517
			C512.004,44.646,506.363,50.288,499.405,50.288"/>
		<path style="fill:#252E49;" d="M385.115,297.145h70.912l-2.679-54.857h-65.554L385.115,297.145z"/>
	</g>
</g>
<g>
</g>
<g>
</g>
<g>
</g>
<g>
</g>
<g>
</g>
<g>
</g>
<g>
</g>
<g>
</g>
<g>
</g>
<g>
</g>
<g>
</g>
<g>
</g>
<g>
</g>
<g>
</g>
<g>
</g>
</svg>
