<?xml version="1.0" encoding="iso-8859-1"?>
<!-- Generator: Adobe Illustrator 19.0.0, SVG Export Plug-In . SVG Version: 6.00 Build 0)  -->
<svg version="1.1" id="Layer_1" xmlns="http://www.w3.org/2000/svg" xmlns:xlink="http://www.w3.org/1999/xlink" x="0px" y="0px"
	 viewBox="0 0 512 512" style="enable-background:new 0 0 512 512;" xml:space="preserve">
<polygon style="fill:#9BD6FF;" points="323.896,0 256,0 224.653,256 256,512 444.641,512 444.641,120.744 351.728,82.246 "/>
<rect x="67.365" style="fill:#C4EAFF;" width="188.635" height="512"/>
<g>
	<polygon style="fill:#2D64BC;" points="256,422.603 444.641,422.603 444.641,391.256 256,391.256 245.551,406.929 	"/>
	<polygon style="fill:#2D64BC;" points="256,482.975 444.641,482.975 444.641,451.628 256,451.628 245.551,467.301 	"/>
	<polygon style="fill:#2D64BC;" points="345.227,29.025 256,29.025 245.551,44.699 256,60.372 345.227,60.372 	"/>
	<polygon style="fill:#2D64BC;" points="256,149.768 245.551,165.697 256,181.115 444.641,181.115 444.641,149.768 	"/>
	<polygon style="fill:#2D64BC;" points="345.227,89.397 256,89.397 245.551,104.385 256,120.744 323.896,120.744 	"/>
	<polygon style="fill:#2D64BC;" points="256,241.487 444.641,241.487 444.641,210.14 256,210.14 245.551,225.814 	"/>
	<polygon style="fill:#2D64BC;" points="256,301.86 444.641,301.86 444.641,270.513 256,270.513 245.551,286.186 	"/>
	<polygon style="fill:#2D64BC;" points="256,362.232 444.641,362.232 444.641,330.885 256,330.885 245.551,346.558 	"/>
</g>
<g>
	<polygon style="fill:#6499F3;" points="256,451.628 159.864,451.628 159.864,422.603 256,422.603 256,391.256 159.864,391.256 
		159.864,362.232 256,362.232 256,330.885 159.864,330.885 159.864,301.86 256,301.86 256,270.513 159.864,270.513 159.864,241.487 
		256,241.487 256,210.14 159.864,210.14 159.864,181.115 256,181.115 256,149.768 159.864,149.768 159.864,120.744 256,120.744 
		256,89.397 159.864,89.397 159.864,60.372 256,60.372 256,29.025 159.864,29.025 159.864,0 128.517,0 128.517,29.025 
		67.359,29.025 67.359,60.372 128.517,60.372 128.517,89.397 67.359,89.397 67.359,120.744 128.517,120.744 128.517,149.768 
		67.359,149.768 67.359,181.115 128.517,181.115 128.517,210.14 67.359,210.14 67.359,241.487 128.517,241.487 128.517,270.513 
		67.359,270.513 67.359,301.86 128.517,301.86 128.517,330.885 67.359,330.885 67.359,362.232 128.517,362.232 128.517,391.256 
		67.359,391.256 67.359,422.603 128.517,422.603 128.517,451.628 67.359,451.628 67.359,482.975 128.517,482.975 128.517,512 
		159.864,512 159.864,482.975 256,482.975 	"/>
	<polygon style="fill:#6499F3;" points="444.641,120.744 323.896,120.744 323.896,0 	"/>
</g>
<g>
</g>
<g>
</g>
<g>
</g>
<g>
</g>
<g>
</g>
<g>
</g>
<g>
</g>
<g>
</g>
<g>
</g>
<g>
</g>
<g>
</g>
<g>
</g>
<g>
</g>
<g>
</g>
<g>
</g>
</svg>
