<?xml version="1.0" encoding="iso-8859-1"?>
<!-- Generator: Adobe Illustrator 19.0.0, SVG Export Plug-In . SVG Version: 6.00 Build 0)  -->
<svg version="1.1" id="Layer_1" xmlns="http://www.w3.org/2000/svg" xmlns:xlink="http://www.w3.org/1999/xlink" x="0px" y="0px"
	 viewBox="0 0 511.998 511.998" style="enable-background:new 0 0 511.998 511.998;" xml:space="preserve">
<path style="fill:#F9D4DB;" d="M400.617,128.311c-13.585-16.143-31.007-24.589-49.035-28.855
	c-22.873-5.413-37.486-21.329-43.757-37.938c-18.478,4.715-35.644,18.802-44.579,38.838c-8.935,20.037-7.483,41.107,2.107,56.328
	l75.408,23.167l75.408-23.167C413.266,146.909,408.092,137.192,400.617,128.311z"/>
<rect x="200.618" y="156.774" style="fill:#6BADB4;" width="274.534" height="98.276"/>
<path style="fill:#83C7C3;" d="M175.361,231.979l15.113,172.348c2.226,25.387,24.898,46.158,50.382,46.158H434.92
	c25.484,0,48.156-20.771,50.382-46.158l15.114-172.348H175.361z"/>
<g>
	<path style="fill:#000030;" d="M152.531,419.71c-73.75-10.552-129.363-74.78-129.363-149.402
		c0-83.231,67.714-150.944,150.944-150.944c9.99,0,19.999,0.988,29.747,2.935c6.277,1.265,12.376-2.815,13.629-9.089
		c1.253-6.274-2.816-12.376-9.089-13.629c-11.24-2.246-22.776-3.386-34.288-3.386C78.107,96.197,0,174.303,0,270.308
		c0,42.158,15.264,82.835,42.981,114.537c27.448,31.395,65.187,51.92,106.268,57.799c0.557,0.079,1.11,0.118,1.655,0.118
		c5.67,0,10.626-4.168,11.453-9.945C163.262,426.484,158.864,420.616,152.531,419.71z"/>
	<path style="fill:#000030;" d="M508.957,224.154c-2.194-2.394-5.293-3.759-8.541-3.759h-13.421v-14.48h0.919
		c6.398,0,11.584-5.187,11.584-11.584s-5.186-11.584-11.584-11.584h-0.919v-26.063c0-6.397-5.186-11.584-11.584-11.584H424.33
		c-3.547-8.59-8.515-16.72-14.85-24.248c-13.665-16.238-32.247-27.23-55.231-32.67c-23.76-5.623-32.803-23.383-35.587-30.757
		c-2.084-5.521-7.981-8.596-13.701-7.132c-22.664,5.783-42.212,22.734-52.295,45.346c-7.301,16.376-8.844,33.849-4.764,49.461
		h-47.537c-6.398,0-11.584,5.187-11.584,11.584v26.063h-0.917c-6.398,0-11.584,5.187-11.584,11.584s5.186,11.584,11.584,11.584
		h0.917v14.48h-13.42c-3.248,0-6.348,1.365-8.542,3.759c-2.194,2.394-3.282,5.601-2.998,8.837l15.113,172.346
		c2.743,31.282,30.521,56.731,61.922,56.731h194.063c31.4,0,59.179-25.449,61.922-56.73l15.113-172.347
		C512.239,229.754,511.152,226.549,508.957,224.154z M273.826,105.074c5.842-13.101,15.974-23.513,28.026-29.156
		c9.946,17.344,26.886,30.037,47.062,34.811c18.291,4.329,32.303,12.521,42.84,25.041c2.526,3.003,4.747,6.121,6.683,9.332H272.331
		C267.258,133.304,267.713,118.784,273.826,105.074z M211.949,168.268h204.132c0.028,0,0.056,0.003,0.083,0.003
		c0.015,0,0.031-0.003,0.047-0.003h47.617v14.48h-251.88V168.268z M211.949,205.915h251.879v14.48H211.949V205.915z
		 M473.763,403.313c-1.691,19.29-19.479,35.587-38.842,35.587H240.858c-19.363,0-37.151-16.296-38.842-35.587l-14.009-159.751
		h299.767L473.763,403.313z"/>
</g>
<g>
</g>
<g>
</g>
<g>
</g>
<g>
</g>
<g>
</g>
<g>
</g>
<g>
</g>
<g>
</g>
<g>
</g>
<g>
</g>
<g>
</g>
<g>
</g>
<g>
</g>
<g>
</g>
<g>
</g>
</svg>
