<?xml version="1.0" encoding="iso-8859-1"?>
<!-- Generator: Adobe Illustrator 18.0.0, SVG Export Plug-In . SVG Version: 6.00 Build 0)  -->
<!DOCTYPE svg PUBLIC "-//W3C//DTD SVG 1.1//EN" "http://www.w3.org/Graphics/SVG/1.1/DTD/svg11.dtd">
<svg version="1.1" id="Capa_1" xmlns="http://www.w3.org/2000/svg" xmlns:xlink="http://www.w3.org/1999/xlink" x="0px" y="0px"
	 viewBox="0 0 297 297" style="enable-background:new 0 0 297 297;" xml:space="preserve">
<g>
	<path d="M184.445,115.801H63.687c-7.192,0-13.044,5.852-13.044,13.044v88.185c0,7.192,5.851,13.044,13.044,13.044h120.759
		c7.192,0,13.044-5.852,13.044-13.044v-88.185C197.489,121.653,191.638,115.801,184.445,115.801z"/>
	<path d="M265.896,65.158H126.521l22.182-33.274c3.073-4.611,1.827-10.841-2.783-13.914c-4.611-3.075-10.84-1.829-13.914,2.783
		l-24.231,36.35l-24.232-36.35c-3.074-4.612-9.303-5.857-13.914-2.783s-5.856,9.303-2.782,13.914l22.181,33.274H31.104
		C13.953,65.158,0,79.111,0,96.263v153.351c0,17.151,13.953,31.104,31.104,31.104h234.791c17.151,0,31.104-13.953,31.104-31.104
		V96.263C297,79.111,283.047,65.158,265.896,65.158z M232.419,118.389c1.496-1.495,3.563-2.349,5.68-2.349
		c2.106,0,4.184,0.854,5.668,2.349c1.496,1.494,2.359,3.563,2.359,5.679c0,2.107-0.863,4.174-2.359,5.669
		c-1.494,1.496-3.562,2.357-5.668,2.357c-2.117,0-4.184-0.861-5.68-2.357c-1.495-1.485-2.348-3.562-2.348-5.669
		C230.071,121.952,230.924,119.884,232.419,118.389z M213.543,217.029c0,16.044-13.054,29.099-29.098,29.099H63.687
		c-16.045,0-29.099-13.055-29.099-29.099v-88.185c0-16.044,13.054-29.098,29.099-29.098h120.759
		c16.044,0,29.098,13.054,29.098,29.098V217.029z M254.385,229.837h-16.29c-4.433,0-8.027-3.594-8.027-8.026
		c0-4.433,3.595-8.027,8.027-8.027h16.29c4.433,0,8.027,3.595,8.027,8.027C262.412,226.243,258.817,229.837,254.385,229.837z
		 M254.385,197.255h-16.29c-4.433,0-8.027-3.594-8.027-8.027c0-4.433,3.595-8.026,8.027-8.026h16.29
		c4.433,0,8.027,3.594,8.027,8.026C262.412,193.661,258.817,197.255,254.385,197.255z M254.385,164.673h-16.29
		c-4.433,0-8.027-3.594-8.027-8.027c0-4.433,3.595-8.027,8.027-8.027h16.29c4.433,0,8.027,3.595,8.027,8.027
		C262.412,161.079,258.817,164.673,254.385,164.673z"/>
</g>
<g>
</g>
<g>
</g>
<g>
</g>
<g>
</g>
<g>
</g>
<g>
</g>
<g>
</g>
<g>
</g>
<g>
</g>
<g>
</g>
<g>
</g>
<g>
</g>
<g>
</g>
<g>
</g>
<g>
</g>
</svg>
