<?xml version="1.0" encoding="iso-8859-1"?>
<!-- Generator: Adobe Illustrator 19.0.0, SVG Export Plug-In . SVG Version: 6.00 Build 0)  -->
<svg version="1.1" id="Layer_1" xmlns="http://www.w3.org/2000/svg" xmlns:xlink="http://www.w3.org/1999/xlink" x="0px" y="0px"
	 viewBox="0 0 512 512" style="enable-background:new 0 0 512 512;" xml:space="preserve">
<path style="fill:#FFDFB3;" d="M510.239,265.228l-57.554-115.098c-8.533-17.087-25.696-27.696-44.804-27.696H104.12
	c-19.109,0-36.272,10.608-44.804,27.685L1.761,265.228C0.583,267.582,0,270.301,0,272.696h512
	C512,269.966,511.242,267.213,510.239,265.228z"/>
<path style="fill:#F26C9A;" d="M50.087,489.739h411.826c27.619,0,50.087-22.468,50.087-50.087V272.696H0v166.957
	C0,467.271,22.468,489.739,50.087,489.739z"/>
<path style="fill:#A6673A;" d="M395.13,222.609H116.87c-9.217,0-16.696-7.479-16.696-16.696c0-9.217,7.479-16.696,16.696-16.696
	H395.13c9.217,0,16.696,7.479,16.696,16.696C411.826,215.13,404.348,222.609,395.13,222.609z"/>
<path style="fill:#D7EBFF;" d="M125.995,222.609h226.576c40.687-44.725,21.307-81.519,7.211-108.011
	c-14.13-26.587-20.63-41.554-1.706-65.207c4.011-5.011,4.794-11.881,2.011-17.663c-2.773-5.793-8.631-9.468-15.044-9.468H166.992
	c-5.2,0-10.07,2.489-13.305,6.559c-33.208,41.779-14.871,76.261-1.469,101.452C171.02,165.65,176.14,180.539,125.995,222.609z"/>
<path style="fill:#D95782;" d="M256,489.739h205.913c27.619,0,50.087-22.468,50.087-50.087V272.696H256V489.739z"/>
<path style="fill:#FFCC99;" d="M407.88,122.435H256v150.261h256c0-2.729-0.758-5.483-1.761-7.467l-57.554-115.098
	C444.152,133.043,426.989,122.435,407.88,122.435z"/>
<path style="fill:#99522E;" d="M395.13,189.217H256v33.391h139.13c9.217,0,16.696-7.479,16.696-16.696
	C411.826,196.696,404.348,189.217,395.13,189.217z"/>
<path style="fill:#C4E2FF;" d="M358.076,49.391c4.011-5.011,4.794-11.881,2.011-17.663c-2.773-5.793-8.631-9.468-15.044-9.468H256
	v200.348h96.571c40.687-44.725,21.307-81.519,7.211-108.011C345.652,88.011,339.152,73.043,358.076,49.391z"/>
<g>
</g>
<g>
</g>
<g>
</g>
<g>
</g>
<g>
</g>
<g>
</g>
<g>
</g>
<g>
</g>
<g>
</g>
<g>
</g>
<g>
</g>
<g>
</g>
<g>
</g>
<g>
</g>
<g>
</g>
</svg>
