<?xml version="1.0" encoding="iso-8859-1"?>
<!-- Generator: Adobe Illustrator 19.1.0, SVG Export Plug-In . SVG Version: 6.00 Build 0)  -->
<svg version="1.1" id="Capa_1" xmlns="http://www.w3.org/2000/svg" xmlns:xlink="http://www.w3.org/1999/xlink" x="0px" y="0px"
	 viewBox="0 0 323.707 323.707" style="enable-background:new 0 0 323.707 323.707;" xml:space="preserve">
<g>
	<path style="fill:#BA82AA;" d="M300.726,94.757h7.981V59.763c-8.84,1.008-21.101,3.77-27.399,9.994
		c0.21,1.354,0.326,2.738,0.326,4.15c0,1.229-0.301,2.386-0.825,3.409c0.532,2.111,0.825,4.316,0.825,6.591
		c0,4.143-3.357,7.5-7.5,7.5c-4.143,0-7.5-3.357-7.5-7.5c0-6.66-5.418-12.078-12.078-12.078H69.15
		c-6.659,0-12.077,5.418-12.077,12.078c0,4.143-3.357,7.5-7.5,7.5s-7.5-3.357-7.5-7.5c0-2.274,0.293-4.48,0.825-6.591
		c-0.524-1.023-0.825-2.181-0.825-3.409c0-1.412,0.116-2.797,0.326-4.15c-4.174-4.126-10.968-6.724-17.65-8.305v33.52
		c0.605,0.147,1.184,0.365,1.722,0.649c2.384,1.256,4.011,3.754,4.011,6.636c0,2.882-1.627,5.38-4.011,6.636
		c-0.538,0.284-1.116,0.502-1.722,0.649v9.268c0.605,0.147,1.184,0.365,1.722,0.649c2.384,1.256,4.011,3.754,4.011,6.636
		c0,2.882-1.627,5.38-4.011,6.636c-0.538,0.284-1.116,0.502-1.722,0.649v9.27c0.605,0.148,1.184,0.365,1.722,0.649
		c2.384,1.256,4.011,3.754,4.011,6.636c0,2.882-1.627,5.38-4.011,6.636c-0.538,0.284-1.116,0.502-1.722,0.649v9.27
		c0.605,0.148,1.184,0.365,1.722,0.65c2.384,1.256,4.011,3.754,4.011,6.636s-1.627,5.38-4.011,6.636
		c-0.538,0.284-1.116,0.502-1.722,0.65v9.268c0.605,0.147,1.184,0.365,1.722,0.649c2.384,1.256,4.011,3.754,4.011,6.636
		c0,2.882-1.627,5.38-4.011,6.636c-0.538,0.284-1.116,0.502-1.722,0.649v9.27c0.605,0.147,1.184,0.365,1.722,0.649
		c2.384,1.256,4.011,3.754,4.011,6.636c0,2.882-1.627,5.38-4.011,6.636c-0.538,0.284-1.116,0.502-1.722,0.649v43.501
		c0.574-0.136,1.147-0.263,1.722-0.414c6.108-1.607,12.113-4.101,15.93-7.868l-0.001-0.006c0.393-0.389,1.93-2.266,2.213-2.718
		c-0.352-0.753-0.664-1.527-0.947-2.315c-0.009-0.026-0.02-0.052-0.029-0.078c-1.006-2.828-1.562-5.868-1.562-9.037
		c0-4.143,3.357-7.5,7.5-7.5s7.5,3.357,7.5,7.5c0,6.66,5.418,12.078,12.077,12.078h185.405c6.66,0,12.078-5.418,12.078-12.078
		c0-4.143,3.357-7.5,7.5-7.5c4.143,0,7.5,3.357,7.5,7.5c0,3.169-0.557,6.208-1.562,9.035c-0.01,0.028-0.021,0.056-0.031,0.084
		c-0.283,0.786-0.594,1.56-0.945,2.311c0.306,0.488,1.787,2.298,2.213,2.718c6.297,6.225,18.556,8.985,27.399,9.993v-44.991h-7.981
		c-4.143,0-7.5-3.357-7.5-7.5c0-4.143,3.357-7.5,7.5-7.5h7.981v-8.84h-7.981c-4.143,0-7.5-3.357-7.5-7.5c0-4.143,3.357-7.5,7.5-7.5
		h7.981v-8.838h-7.981c-4.143,0-7.5-3.357-7.5-7.5c0-4.143,3.357-7.5,7.5-7.5h7.981v-8.84h-7.981c-4.143,0-7.5-3.357-7.5-7.5
		c0-4.143,3.357-7.5,7.5-7.5h7.981v-8.84h-7.981c-4.143,0-7.5-3.357-7.5-7.5s3.357-7.5,7.5-7.5h7.981v-8.838h-7.981
		c-4.143,0-7.5-3.357-7.5-7.5S296.583,94.757,300.726,94.757z"/>
	<path style="fill:#FFFFFF;" d="M49.573,91.407c4.143,0,7.5-3.357,7.5-7.5c0-6.66,5.418-12.078,12.077-12.078h185.405
		c6.66,0,12.078,5.418,12.078,12.078c0,4.143,3.357,7.5,7.5,7.5c4.143,0,7.5-3.357,7.5-7.5c0-2.274-0.293-4.48-0.825-6.591
		c-1.242,2.427-3.762,4.091-6.675,4.091c-4.143,0-7.5-3.357-7.5-7.5c0-6.66-5.418-12.078-12.078-12.078H69.15
		c-6.659,0-12.077,5.418-12.077,12.078c0,4.143-3.357,7.5-7.5,7.5c-2.913,0-5.433-1.664-6.675-4.091
		c-0.532,2.111-0.825,4.316-0.825,6.591C42.073,88.05,45.431,91.407,49.573,91.407z"/>
	<path style="fill:#FFFFFF;" d="M279.094,62.476c1.065,2.274,1.816,4.72,2.213,7.281c6.299-6.225,18.561-8.986,27.4-9.994v-10
		C298.67,50.907,284.213,54.306,279.094,62.476z"/>
	<path style="fill:#FFFFFF;" d="M99.599,121.749c0-6.66,5.418-12.079,12.077-12.079h120.354c0.652,0,1.288,0.066,1.912,0.167
		c-0.921-5.753-5.904-10.167-11.912-10.167H101.676c-6.659,0-12.077,5.419-12.077,12.079V211.96c0,6.008,4.414,10.99,10.166,11.911
		c-0.1-0.624-0.166-1.26-0.166-1.911V121.749z"/>
	<path style="fill:#FFA6BB;" d="M232.029,109.67H111.676c-6.659,0-12.077,5.419-12.077,12.079V221.96
		c0,0.651,0.066,1.287,0.166,1.911c0.624,0.1,1.26,0.166,1.911,0.166h120.354c6.66,0,12.079-5.418,12.079-12.077v-16.764
		c0-4.143,3.357-7.5,7.5-7.5h9.572c4.171,0,7.564-3.394,7.564-7.566v-36.557c0-4.171-3.393-7.564-7.564-7.564h-9.572
		c-4.143,0-7.5-3.357-7.5-7.5v-16.761c0-0.652-0.066-1.287-0.166-1.912h-0.001C233.317,109.736,232.682,109.67,232.029,109.67z"/>
	<path style="fill:#7F3960;" d="M251.181,121.01h-2.072v-9.261c0-14.932-12.147-27.079-27.079-27.079H101.676
		c-14.931,0-27.077,12.147-27.077,27.079V211.96c0,14.931,12.146,27.077,27.077,27.077h120.354
		c14.932,0,27.079-12.146,27.079-27.077v-9.264h2.072c12.441,0,22.564-10.123,22.564-22.566v-36.557
		C273.744,131.132,263.622,121.01,251.181,121.01z M89.599,211.96V111.749c0-6.66,5.418-12.079,12.077-12.079h120.354
		c6.008,0,10.991,4.414,11.913,10.167c0.1,0.625,0.166,1.26,0.166,1.912v16.761c0,4.143,3.357,7.5,7.5,7.5h9.572
		c4.171,0,7.564,3.394,7.564,7.564v36.557c0,4.172-3.393,7.566-7.564,7.566h-9.572c-4.143,0-7.5,3.357-7.5,7.5v16.764
		c0,6.659-5.419,12.077-12.079,12.077H101.676c-0.651,0-1.287-0.066-1.911-0.166C94.013,222.95,89.599,217.968,89.599,211.96z"/>
	<polygon style="fill:#FFFFFF;" points="55.793,78.1 55.793,78.101 55.793,78.101 	"/>
	<path style="fill:none;" d="M43.636,258.839c0.01,0.026,0.021,0.052,0.029,0.078C43.656,258.891,43.646,258.865,43.636,258.839z"/>
	<path style="fill:none;" d="M280.04,258.921c0.01-0.028,0.021-0.056,0.031-0.084C280.061,258.865,280.05,258.893,280.04,258.921z"
		/>
	<path style="fill:none;" d="M44.612,261.232c-0.283,0.452-0.603,0.884-0.942,1.306C44.008,262.116,44.329,261.685,44.612,261.232z"
		/>
	<path style="fill:none;" d="M42.4,263.956c0.395-0.39,0.758-0.797,1.103-1.214c-0.346,0.415-0.711,0.819-1.104,1.208L42.4,263.956z
		"/>
	<path style="fill:none;" d="M280.113,262.643c0.368,0.453,0.77,0.887,1.194,1.307l0,0
		C280.882,263.53,280.483,263.095,280.113,262.643z"/>
	<path style="fill:#FFFFFF;" d="M22.981,109.757H15v8.838h7.981c0.584,0,1.149,0.074,1.693,0.201v-9.24
		C24.13,109.683,23.565,109.757,22.981,109.757z"/>
	<path style="fill:#FFFFFF;" d="M22.981,228.952H15v44.992c2.958-0.338,6.302-0.893,9.675-1.689v-43.505
		C24.13,228.878,23.565,228.952,22.981,228.952z"/>
	<path style="fill:#FFFFFF;" d="M44.613,62.476C39.495,54.306,25.041,50.908,15,49.764v44.993h7.981
		c0.584,0,1.149,0.074,1.693,0.201V61.435c6.707,1.579,13.536,4.181,17.726,8.322C42.798,67.195,43.55,64.749,44.613,62.476z"/>
	<path style="fill:#FFFFFF;" d="M22.981,133.595H15v8.84h7.981c0.584,0,1.149,0.074,1.693,0.201v-9.242
		C24.13,133.52,23.565,133.595,22.981,133.595z"/>
	<path style="fill:#FFFFFF;" d="M22.981,157.435H15v8.84h7.981c0.584,0,1.149,0.074,1.693,0.201v-9.242
		C24.13,157.36,23.565,157.435,22.981,157.435z"/>
	<path style="fill:#FFFFFF;" d="M22.981,181.274H15v8.838h7.981c0.584,0,1.149,0.074,1.693,0.201v-9.24
		C24.13,181.2,23.565,181.274,22.981,181.274z"/>
	<path style="fill:#FFFFFF;" d="M22.981,205.112H15v8.84h7.981c0.584,0,1.149,0.074,1.693,0.201v-9.242
		C24.13,205.038,23.565,205.112,22.981,205.112z"/>
	<path style="fill:#7F3960;" d="M316.207,34.272c-3.855,0-33.539,0.555-47.264,16.712c-4.172-2.628-9.103-4.155-14.388-4.155H69.15
		c-5.284,0-10.216,1.527-14.388,4.155C41.039,34.827,11.356,34.272,7.5,34.272c-4.143,0-7.5,3.358-7.5,7.5v240.162
		c0,4.142,3.357,7.5,7.5,7.5c3.856,0,33.537-0.555,47.262-16.711c4.172,2.629,9.104,4.156,14.389,4.156h185.405
		c5.285,0,10.218-1.527,14.39-4.156c13.724,16.156,43.406,16.711,47.262,16.711c4.143,0,7.5-3.358,7.5-7.5V41.772
		C323.707,37.63,320.35,34.272,316.207,34.272z M308.707,59.763v34.994h-7.981c-4.143,0-7.5,3.357-7.5,7.5s3.357,7.5,7.5,7.5h7.981
		v8.838h-7.981c-4.143,0-7.5,3.357-7.5,7.5s3.357,7.5,7.5,7.5h7.981v8.84h-7.981c-4.143,0-7.5,3.357-7.5,7.5
		c0,4.143,3.357,7.5,7.5,7.5h7.981v8.84h-7.981c-4.143,0-7.5,3.357-7.5,7.5c0,4.143,3.357,7.5,7.5,7.5h7.981v8.838h-7.981
		c-4.143,0-7.5,3.357-7.5,7.5c0,4.143,3.357,7.5,7.5,7.5h7.981v8.84h-7.981c-4.143,0-7.5,3.357-7.5,7.5c0,4.143,3.357,7.5,7.5,7.5
		h7.981v44.991c-8.844-1.008-21.103-3.768-27.399-9.993c-0.425-0.42-1.907-2.229-2.213-2.718c0.352-0.752,0.662-1.525,0.945-2.311
		c0.01-0.028,0.021-0.056,0.031-0.084c1.006-2.827,1.562-5.866,1.562-9.035c0-4.143-3.357-7.5-7.5-7.5c-4.143,0-7.5,3.357-7.5,7.5
		c0,6.66-5.418,12.078-12.078,12.078H69.15c-6.659,0-12.077-5.418-12.077-12.078c0-4.143-3.357-7.5-7.5-7.5s-7.5,3.357-7.5,7.5
		c0,3.169,0.557,6.209,1.562,9.037c0.01,0.026,0.625,1.641,0.977,2.393c-0.283,0.452-1.817,2.334-2.212,2.724
		c-3.816,3.768-9.821,6.261-15.93,7.868c-0.599,0.157-1.197,0.291-1.796,0.432c-3.373,0.795-6.717,1.351-9.675,1.689v-44.992h7.981
		c0.584,0,1.149-0.074,1.693-0.201c0.632-0.148,1.236-0.368,1.796-0.663c2.384-1.256,4.011-3.754,4.011-6.636
		c0-2.882-1.627-5.38-4.011-6.636c-0.56-0.295-1.164-0.516-1.796-0.663c-0.545-0.127-1.109-0.201-1.693-0.201H15v-8.84h7.981
		c0.584,0,1.149-0.074,1.693-0.201c0.632-0.147,1.236-0.368,1.796-0.663c2.384-1.256,4.011-3.754,4.011-6.636
		c0-2.882-1.627-5.38-4.011-6.636c-0.56-0.295-1.164-0.516-1.796-0.663c-0.545-0.127-1.109-0.201-1.693-0.201H15v-8.838h7.981
		c0.584,0,1.149-0.074,1.693-0.201c0.632-0.147,1.236-0.368,1.796-0.663c2.384-1.256,4.011-3.754,4.011-6.636
		s-1.627-5.38-4.011-6.636c-0.56-0.295-1.164-0.516-1.796-0.663c-0.545-0.127-1.109-0.201-1.693-0.201H15v-8.84h7.981
		c0.584,0,1.149-0.074,1.693-0.201c0.632-0.147,1.236-0.368,1.796-0.663c2.384-1.256,4.011-3.754,4.011-6.636
		c0-2.882-1.627-5.38-4.011-6.636c-0.56-0.295-1.164-0.516-1.796-0.663c-0.545-0.127-1.109-0.201-1.693-0.201H15v-8.84h7.981
		c0.584,0,1.149-0.074,1.693-0.201c0.632-0.147,1.236-0.368,1.796-0.663c2.384-1.256,4.011-3.754,4.011-6.636
		c0-2.882-1.627-5.38-4.011-6.636c-0.56-0.295-1.164-0.516-1.796-0.663c-0.545-0.127-1.109-0.201-1.693-0.201H15v-8.838h7.981
		c0.584,0,1.149-0.074,1.693-0.201c0.632-0.147,1.236-0.368,1.796-0.663c2.384-1.256,4.011-3.754,4.011-6.636
		c0-2.882-1.627-5.38-4.011-6.636c-0.56-0.295-1.164-0.516-1.796-0.663c-0.545-0.127-1.109-0.201-1.693-0.201H15V59.764v-3.888
		v-6.112c10.041,1.145,24.495,4.542,29.613,12.712c-1.063,2.273-1.816,4.72-2.214,7.281c-0.21,1.354-0.326,2.738-0.326,4.15
		c0,1.228,0.301,2.386,0.825,3.409c1.242,2.427,3.761,4.091,6.675,4.091c2.589,0,4.872-1.312,6.22-3.307c0-0.001,0-0.001,0-0.001
		c0.289-0.427,0.53-0.887,0.727-1.37c0.354-0.872,0.554-1.823,0.554-2.822c0-6.66,5.418-12.078,12.077-12.078h185.405
		c6.66,0,12.078,5.418,12.078,12.078c0,1.221,0.298,2.37,0.815,3.389c0.051,0.099,0.101,0.198,0.155,0.294
		c0.085,0.151,0.174,0.299,0.268,0.443c1.342,2.031,3.644,3.374,6.261,3.374c2.914,0,5.433-1.664,6.675-4.091
		c0.524-1.023,0.825-2.18,0.825-3.409c0-1.412-0.116-2.797-0.326-4.15c-0.398-2.562-1.15-5.008-2.214-7.281
		c5.119-8.17,19.576-11.568,29.613-12.713V59.763z"/>
</g>
<g>
</g>
<g>
</g>
<g>
</g>
<g>
</g>
<g>
</g>
<g>
</g>
<g>
</g>
<g>
</g>
<g>
</g>
<g>
</g>
<g>
</g>
<g>
</g>
<g>
</g>
<g>
</g>
<g>
</g>
</svg>
